<?xml version="1.0" encoding="UTF-8" standalone="no"?>
<svg
   inkscape:export-ydpi="63.484585"
   inkscape:export-xdpi="63.484585"
   inkscape:export-filename="/home/SuperData/ChepeCarlos@alsw.net/2.Contenido/4.Striming/1.OBS/1.Thema/1.Logos/LogoALSWSimple.png"
   sodipodi:docname="alsw.svg"
   inkscape:version="1.1.1 (1:1.1+202109281949+c3084ef5ed)"
   id="svg891"
   version="1.1"
   viewBox="0 0 210 187.85416"
   height="710"
   width="793.70081"
   xmlns:inkscape="http://www.inkscape.org/namespaces/inkscape"
   xmlns:sodipodi="http://sodipodi.sourceforge.net/DTD/sodipodi-0.dtd"
   xmlns="http://www.w3.org/2000/svg"
   xmlns:svg="http://www.w3.org/2000/svg"
   xmlns:rdf="http://www.w3.org/1999/02/22-rdf-syntax-ns#"
   xmlns:cc="http://creativecommons.org/ns#"
   xmlns:dc="http://purl.org/dc/elements/1.1/">
  <defs
     id="defs885" />
  <sodipodi:namedview
     units="px"
     inkscape:document-rotation="0"
     inkscape:snap-global="false"
     inkscape:window-maximized="1"
     inkscape:window-y="0"
     inkscape:window-x="0"
     inkscape:window-height="1003"
     inkscape:window-width="1920"
     inkscape:pagecheckerboard="true"
     showgrid="false"
     inkscape:current-layer="g1142"
     inkscape:document-units="mm"
     inkscape:cy="412.72248"
     inkscape:cx="565.08537"
     inkscape:zoom="0.85650775"
     inkscape:pageshadow="2"
     inkscape:pageopacity="0.0"
     borderopacity="1.0"
     bordercolor="#666666"
     pagecolor="#ffffff"
     id="base" />
  <metadata
     id="metadata888">
    <rdf:RDF>
      <cc:Work
         rdf:about="">
        <dc:format>image/svg+xml</dc:format>
        <dc:type
           rdf:resource="http://purl.org/dc/dcmitype/StillImage" />
        <dc:title />
      </cc:Work>
    </rdf:RDF>
  </metadata>
  <g
     transform="translate(0,-87)"
     id="layer1"
     inkscape:groupmode="layer"
     inkscape:label="Capa 1">
    <g
       style="fill:#ffffff;fill-opacity:1"
       transform="matrix(2.4299656,0,0,2.4299656,-40.118125,-66.219819)"
       id="g1446">
      <g
         transform="translate(0,39.074383)"
         id="g1454">
        <g
           id="g1142"
           transform="translate(-0.0154867,-0.51440636)">
          <circle
             style="fill:#ffffff;stroke:none;stroke-width:0.793412;stroke-linecap:square;stroke-linejoin:bevel"
             id="path858"
             cx="59.913864"
             cy="70.755836"
             r="29.683773" />
          <path
             style="fill:#068587;fill-opacity:1;stroke:#ffffff;stroke-width:3.96706;stroke-miterlimit:4;stroke-dasharray:none;stroke-opacity:1"
             d="m 66.01505,27.84043 c -0.212386,-0.0089 -0.342656,0.02722 -0.342656,0.02722 H 54.662361 c -3.179473,0 -3.790584,3.019341 -3.790584,3.019341 l -1.096772,4.967682 c -4.554007,1.488914 -8.663744,3.965837 -12.051482,7.19413 l -5.053804,-1.363462 c -4.012521,-0.876652 -4.484727,1.224167 -4.484727,1.224167 l -5.15097,9.754536 c -1.485606,2.810844 0.888487,4.77302 0.888487,4.77302 l 4.276438,3.645732 c -0.2638,1.669812 -0.402633,3.36758 -0.402633,5.106968 0,2.713438 0.3335,5.343402 0.972168,7.862027 l -4.12394,4.424781 c -2.721294,3.214378 -1.040976,4.661403 -1.040976,4.661403 l 6.330968,9.350948 c 1.832709,2.699523 4.734392,1.488914 4.734392,1.488914 l 5.803737,-2.29565 c 4.649019,2.461009 4.501371,2.766752 8.464362,4.254755 l 5.988952,-13.578015 1.069342,-2.546571 c -0.305452,-0.06953 -0.610863,-0.166894 -0.902432,-0.264301 -0.180493,-0.06953 -0.36115,-0.139367 -0.541645,-0.208943 l -0.01394,0.02812 c -5.414823,-1.989854 -9.274448,-7.194228 -9.274448,-13.302942 0,-4.007538 1.666005,-7.625271 4.331765,-10.213481 -1.943783,-1.252354 -2.665642,-3.53433 -2.707294,-3.576076 l -0.05579,-0.139304 0.875,-0.09733 c 1.430068,0.04177 2.706961,0.709526 3.748274,1.516601 -3.137825,-5.329478 -0.374805,-11.382361 -0.388687,-11.535429 l 0.09717,-0.278591 1.360854,1.085318 c 1.194037,1.23844 2.013377,2.727532 2.568743,4.272107 4.678962,-5.232062 11.676583,-5.649698 11.843193,-5.76102 l 0.444007,-0.08346 -0.111118,3.047484 c -0.360988,2.240328 -1.12461,4.258031 -2.124269,6.039156 3.554344,-1.586312 6.442132,-2.101078 6.553203,-2.170645 L 72.101,48.07229 71.198103,50.117939 c -0.930237,1.572396 -2.16558,3.033051 -3.567881,4.382813 3.582115,2.574294 5.914391,6.777011 5.914391,11.522049 0,6.540078 -4.41517,12.036423 -10.427012,13.678395 -0.04166,0 -0.0694,0.01384 -0.09717,0.01384 l 7.174552,16.543758 c 2.759863,-0.946907 4.995752,-2.350615 8.40343,-4.451595 l 5.637289,2.073319 c 4.012523,1.26627 4.678603,-0.834862 4.678603,-0.834862 l 6.151041,-9.475944 c 1.777172,-2.741269 -0.472372,-4.953838 -0.472372,-4.953838 l -4.206695,-4.299776 c 0.680322,-2.588201 1.041446,-5.301639 1.041446,-8.112483 0,-1.572405 -0.111213,-3.117061 -0.333359,-4.61989 l 4.040253,-3.840376 c 2.915679,-3.033489 1.33296,-4.578385 1.33296,-4.578385 l -5.734462,-9.726402 c -1.652221,-2.810845 -4.637223,-1.781348 -4.637223,-1.781348 l -4.512157,1.475079 C 78.293185,39.987487 74.322279,37.538394 69.934884,36.02165 L 68.852058,31.262929 C 68.029423,28.288583 66.652204,27.865886 66.01505,27.840447 Z"
             id="path1079"
             inkscape:connector-curvature="0"
             sodipodi:nodetypes="ccsccccccccsccccccccccccscccccccccccccccccscccccccccsccccccccc"
             inkscape:export-filename="/home/chepecarlos/GrandeLogo.png"
             inkscape:export-xdpi="399.94861"
             inkscape:export-ydpi="399.94861" />
          <path
             style="fill:#068587;fill-opacity:1;stroke:none;stroke-width:0.89604;stroke-miterlimit:4;stroke-dasharray:none;stroke-opacity:1"
             d="m 66.01505,27.84043 c -0.212386,-0.0089 -0.342656,0.02722 -0.342656,0.02722 H 54.662361 c -3.179473,0 -3.790584,3.019341 -3.790584,3.019341 l -1.096772,4.967682 c -4.554007,1.488914 -8.663744,3.965837 -12.051482,7.19413 l -5.053804,-1.363462 c -4.012521,-0.876652 -4.484727,1.224167 -4.484727,1.224167 l -5.15097,9.754536 c -1.485606,2.810844 0.888487,4.77302 0.888487,4.77302 l 4.276438,3.645732 c -0.2638,1.669812 -0.402633,3.36758 -0.402633,5.106968 0,2.713438 0.3335,5.343402 0.972168,7.862027 l -4.12394,4.424781 c -2.721294,3.214378 -1.040976,4.661403 -1.040976,4.661403 l 6.330968,9.350948 c 1.832709,2.699523 4.734392,1.488914 4.734392,1.488914 l 5.803737,-2.29565 c 4.649019,2.461009 4.501371,2.766752 8.464362,4.254755 l 5.988952,-13.578015 1.069342,-2.546571 c -0.305452,-0.06953 -0.610863,-0.166894 -0.902432,-0.264301 -0.180493,-0.06953 -0.36115,-0.139367 -0.541645,-0.208943 l -0.01394,0.02812 c -5.414823,-1.989854 -9.274448,-7.194228 -9.274448,-13.302942 0,-4.007538 1.666005,-7.625271 4.331765,-10.213481 -1.943783,-1.252354 -2.665642,-3.53433 -2.707294,-3.576076 l -0.05579,-0.139304 0.875,-0.09733 c 1.430068,0.04177 2.706961,0.709526 3.748274,1.516601 -3.137825,-5.329478 -0.374805,-11.382361 -0.388687,-11.535429 l 0.09717,-0.278591 1.360854,1.085318 c 1.194037,1.23844 2.013377,2.727532 2.568743,4.272107 4.678962,-5.232062 11.676583,-5.649698 11.843193,-5.76102 l 0.444007,-0.08346 -0.111118,3.047484 c -0.360988,2.240328 -1.12461,4.258031 -2.124269,6.039156 3.554344,-1.586312 6.442132,-2.101078 6.553203,-2.170645 L 72.101,48.07229 71.198103,50.117939 c -0.930237,1.572396 -2.16558,3.033051 -3.567881,4.382813 3.582115,2.574294 5.914391,6.777011 5.914391,11.522049 0,6.540078 -4.41517,12.036423 -10.427012,13.678395 -0.04166,0 -0.0694,0.01384 -0.09717,0.01384 l 7.174552,16.543758 c 2.759863,-0.946907 4.995752,-2.350615 8.40343,-4.451595 l 5.637289,2.073319 c 4.012523,1.26627 4.678603,-0.834862 4.678603,-0.834862 l 6.151041,-9.475944 c 1.777172,-2.741269 -0.472372,-4.953838 -0.472372,-4.953838 l -4.206695,-4.299776 c 0.680322,-2.588201 1.041446,-5.301639 1.041446,-8.112483 0,-1.572405 -0.111213,-3.117061 -0.333359,-4.61989 l 4.040253,-3.840376 c 2.915679,-3.033489 1.33296,-4.578385 1.33296,-4.578385 l -5.734462,-9.726402 c -1.652221,-2.810845 -4.637223,-1.781348 -4.637223,-1.781348 l -4.512157,1.475079 C 78.293185,39.987487 74.322279,37.538394 69.934884,36.02165 L 68.852058,31.262929 C 68.029423,28.288583 66.652204,27.865886 66.01505,27.840447 Z"
             id="path936"
             inkscape:connector-curvature="0"
             sodipodi:nodetypes="ccsccccccccsccccccccccccscccccccccccccccccscccccccccsccccccccc"
             inkscape:export-filename="/home/chepecarlos/GrandeLogo.png"
             inkscape:export-xdpi="399.94861"
             inkscape:export-ydpi="399.94861" />
          <path
             style="fill:#068587;fill-opacity:1;stroke:none;stroke-width:0.89604;stroke-miterlimit:4;stroke-dasharray:none;stroke-opacity:1"
             inkscape:connector-curvature="0"
             id="path938"
             d="M 64.756053,67.372349 H 54.217977 c 0,0 -0.652557,6.874044 5.400937,6.874044 -0.01388,0.01392 6.053495,-0.09741 5.137139,-6.874044 z" />
          <path
             style="fill:#068587;fill-opacity:1;stroke:none;stroke-width:0.89604;stroke-miterlimit:4;stroke-dasharray:none;stroke-opacity:1"
             inkscape:connector-curvature="0"
             id="path940"
             d="m 47.275897,65.799944 c 0,0 -0.111075,1.05755 1.055195,0.417457 1.152385,-0.626186 3.943102,-2.532548 7.469678,-3.214387 0,0 2.679643,-2.212497 -5.886883,-3.270039 0,0 -1.152386,1.057542 0.111072,1.210609 1.263459,0.153068 4.415163,1.26627 4.415163,1.26627 0,0 -3.526575,0.473119 -6.886543,3.005658 z" />
          <path
             style="fill:#068587;fill-opacity:1;stroke:none;stroke-width:0.89604;stroke-miterlimit:4;stroke-dasharray:none;stroke-opacity:1"
             inkscape:connector-curvature="0"
             id="path942"
             d="m 68.990724,59.746891 c -8.274959,1.057541 -5.678622,3.270039 -5.678622,3.270039 3.401619,0.681838 6.095146,2.5882 7.205879,3.214386 1.110734,0.626178 1.013542,-0.417457 1.013542,-0.417457 l -0.249914,-0.584432 c -3.248894,-2.532539 -6.650513,-3.005658 -6.650513,-3.005658 0,0 3.040631,-1.113202 4.262439,-1.266269 1.207922,-0.153068 0.09719,-1.210609 0.09719,-1.210609 z" />
        </g>
      </g>
    </g>
  </g>
</svg>
