<?xml version="1.0" encoding="UTF-8" standalone="no"?>
<!-- Created with Inkscape (http://www.inkscape.org/) -->

<svg
   width="210mm"
   height="297mm"
   viewBox="0 0 210 297"
   version="1.1"
   id="svg1245"
   inkscape:version="1.1.1 (1:1.1+202109281949+c3084ef5ed)"
   sodipodi:docname="Base.svg"
   xmlns:inkscape="http://www.inkscape.org/namespaces/inkscape"
   xmlns:sodipodi="http://sodipodi.sourceforge.net/DTD/sodipodi-0.dtd"
   xmlns="http://www.w3.org/2000/svg"
   xmlns:svg="http://www.w3.org/2000/svg">
  <sodipodi:namedview
     id="namedview1247"
     pagecolor="#202020"
     bordercolor="#666666"
     borderopacity="1.0"
     inkscape:pageshadow="2"
     inkscape:pageopacity="0"
     inkscape:pagecheckerboard="true"
     inkscape:document-units="mm"
     showgrid="false"
     inkscape:zoom="0.4692965"
     inkscape:cx="1145.3314"
     inkscape:cy="704.24562"
     inkscape:window-width="1920"
     inkscape:window-height="1003"
     inkscape:window-x="0"
     inkscape:window-y="0"
     inkscape:window-maximized="1"
     inkscape:current-layer="layer1"
     inkscape:snap-global="false" />
  <defs
     id="defs1242" />
  <g
     inkscape:label="Capa 1"
     inkscape:groupmode="layer"
     id="layer1">
    <path
       d="m 58.212028,114.37865 c -1.42206,1.44166 -4.24657,1.42456 -4.72223,-1.09839 -6.63711,-35.558941 -7.90716,-71.993179 -3.60419,-107.9124863 0.26723,-2.370948 2.82696,-3.1873732 4.42065,-2.4469123 0.85324,0.3801691 1.42206,1.1940229 1.27005,2.4469123 -4.24903,35.4068783 -3.14815,71.3482863 3.41295,106.4143963 0.21087,1.08123 -0.152,1.97125 -0.77723,2.59648"
       style="fill:#ffffff;fill-opacity:1;fill-rule:nonzero;stroke:none;stroke-width:0.245183"
       id="path218"
       inkscape:export-filename="/home/chepecarlos/1.Proyectos/1.Oficiales/1.NocheProgramacion/invitados/008_halloween_2021/p5js/assets/pechos.png"
       inkscape:export-xdpi="125.77238"
       inkscape:export-ydpi="125.77238" />
    <path
       d="m 58.212028,114.37865 c -7.22555,-36.620565 -8.55199,-74.41799 -3.90577,-111.4577886 0.85324,0.3801691 1.42206,1.1940229 1.27005,2.4469123 -4.24903,35.4068783 -3.14815,71.3482863 3.41295,106.4143963 0.21087,1.08123 -0.152,1.97125 -0.77723,2.59648"
       style="fill:#e0def2;fill-opacity:1;fill-rule:nonzero;stroke:none;stroke-width:0.245183"
       id="path220"
       inkscape:export-filename="/home/chepecarlos/1.Proyectos/1.Oficiales/1.NocheProgramacion/invitados/008_halloween_2021/p5js/assets/pechos.png"
       inkscape:export-xdpi="125.77238"
       inkscape:export-ydpi="125.77238" />
    <path
       d="m 102.02382,21.488542 c -0.4364,2.236048 -1.89772,3.564972 -3.283007,4.398564 -1.44167,0.816495 -2.97652,1.137658 -4.45497,1.194092 -1.04448,0.02085 -1.917345,-0.813993 -1.954125,-1.856087 -0.0195,-0.931657 0.625235,-1.708884 1.498075,-1.897718 l 0.1128,-0.03475 c 0.79685,-0.171667 1.51769,-0.475385 2.08651,-0.912058 l 0.26723,-0.189042 c 0.60563,-0.492761 0.89002,-1.157327 0.7944,-1.36569 -0.0563,-0.02085 -0.20844,-0.417005 -0.83362,-0.892459 -0.58847,-0.4733 -1.44169,-0.909626 -2.37093,-1.250458 -1.838875,-0.701193 -3.981785,-1.044457 -6.220305,-1.213622 -2.23607,-0.171667 -4.58983,-0.227962 -6.99753,-0.264798 l -14.47071,-0.210587 c -4.81785,-0.07576 -9.61608,-0.09313 -14.43148,-0.07576 -9.59647,0 -19.195396,0.247423 -28.772252,0.703695 -4.798234,0.303719 -9.616081,0.377389 -13.5414696,1.610819 -0.946405,0.303718 -1.878105,0.701263 -2.503319,1.137658 -0.532029,0.340554 -0.796847,0.720862 -0.909626,1.100892 -0.09563,0.397544 -0.01946,0.892459 0.436395,1.385289 l 0.360431,0.340553 c 0.453562,0.340554 1.081258,0.625507 1.782486,0.777297 l 0.05629,0.02085 c 1.024865,0.208502 1.6868596,1.213622 1.4612876,2.255647 -0.1912656,0.912127 -1.0248646,1.537287 -1.9344906,1.498088 -1.461295,-0.0556 -3.072148,-0.436464 -4.533443,-1.498088 C 2.2267728,25.24561 1.0891218,23.347892 1.1062888,21.30311 c -0.03683,-2.069384 1.064091,-3.927834 2.4101466,-5.10476 1.23327,-1.09839 2.52294,-1.799583 3.812602,-2.388046 5.1954306,-2.182115 10.2609166,-2.59898 15.0591506,-3.20454 9.765648,-1.1572573 19.57053,-1.6133213 29.35824,-1.6893553 4.89141,-0.02085 9.78527,0.09591 14.65951,0.247423 4.87424,0.264798 9.74848,0.49276 14.60311,0.9292943 4.81785,0.436465 10.06967,0.683888 15.323955,3.22414 1.27005,0.664427 2.54009,1.458821 3.716977,2.672512 0.56879,0.608132 1.12048,1.348523 1.53729,2.258149 0.4168,0.853191 0.662,2.142847 0.4364,3.243739"
       style="fill:#ffffff;fill-opacity:1;fill-rule:nonzero;stroke:none;stroke-width:0.245183"
       id="path222"
       inkscape:export-filename="/home/chepecarlos/1.Proyectos/1.Oficiales/1.NocheProgramacion/invitados/008_halloween_2021/p5js/assets/pechos.png"
       inkscape:export-xdpi="125.77238"
       inkscape:export-ydpi="125.77238" />
    <path
       d="m 97.926813,19.931656 c 0,1.007692 -0.74046,1.878119 -1.61086,2.334113 l -0.28683,0.112592 0.26723,-0.189042 c 0.60563,-0.492761 0.89002,-1.157327 0.7944,-1.36569 -0.0563,-0.02085 -0.20844,-0.417005 -0.83362,-0.892459 -0.58847,-0.4733 -1.44168,-0.909626 -2.37093,-1.250458 -1.838875,-0.701193 -3.981775,-1.044457 -6.220305,-1.213622 -2.23606,-0.171667 -4.58983,-0.227962 -6.99753,-0.264798 l -14.47071,-0.210587 c -4.81785,-0.07576 -9.61608,-0.09313 -14.43148,-0.07576 -9.59647,0 -19.195395,0.247423 -28.772251,0.703695 -4.798234,0.303719 -9.616082,0.377389 -13.5414696,1.610819 -0.946406,0.303718 -1.878105,0.701263 -2.50332,1.137658 -0.532028,0.340554 -0.796846,0.720862 -0.909625,1.100892 -0.09563,0.397544 -0.01946,0.892459 0.436395,1.385289 l 0.360431,0.340553 h -0.05908 c -1.478455,-0.683887 -1.554461,-2.902907 -0.549195,-4.172964 1.005252,-1.270056 2.655339,-1.782485 4.2294126,-2.179682 8.250412,-2.049716 16.822023,-2.353782 25.320082,-2.503347 14.54671,-0.266883 29.11059,-0.115372 43.65731,0.397544 5.17828,0.189042 10.44971,0.455925 15.343575,2.142916 1.47846,0.512221 3.14815,1.498089 3.14815,3.052543"
       style="fill:#e0def2;fill-opacity:1;fill-rule:nonzero;stroke:none;stroke-width:0.245183"
       id="path224"
       inkscape:export-filename="/home/chepecarlos/1.Proyectos/1.Oficiales/1.NocheProgramacion/invitados/008_halloween_2021/p5js/assets/pechos.png"
       inkscape:export-xdpi="125.77238"
       inkscape:export-ydpi="125.77238" />
    <path
       d="m 94.531023,45.195317 c -0.4168,2.047283 -1.74325,3.22414 -2.959365,3.962168 -1.28721,0.701193 -2.65533,0.968493 -3.94255,0.988092 -1.04448,0.0139 -1.91733,-0.816495 -1.91733,-1.860952 -0.0174,-0.909626 0.58846,-1.667253 1.42206,-1.875686 l 0.152,-0.0417 c 0.74045,-0.189043 1.40489,-0.512221 1.84132,-0.929225 l 0.3972,-0.512221 0.0563,-0.397544 c -0.076,0.168887 -0.1128,-0.0417 -0.60563,-0.39963 -0.45607,-0.340553 -1.13765,-0.681802 -1.89772,-0.926792 -1.47846,-0.551836 -3.24132,-0.816425 -5.11943,-0.948824 -1.85848,-0.115371 -3.83221,-0.152207 -5.87949,-0.171667 l -12.17579,-0.112591 c -4.05779,-0.07576 -8.11802,-0.07576 -12.15619,-0.0556 -8.0984,-0.02085 -16.17719,0.189042 -24.238811,0.510136 -4.05778,0.227962 -8.078787,0.266882 -11.302948,1.23329 -0.777227,0.227963 -1.537294,0.549056 -2.010497,0.87286 -0.38003,0.208502 -0.549194,0.417005 -0.644827,0.605352 -0.0932,0.210587 -0.1128,0.51222 0.208432,0.892459 l 0.456064,0.417004 c 0.303996,0.208503 0.701221,0.397545 1.154811,0.495541 l 0.07847,0.0139 c 1.022412,0.245337 1.647633,1.270056 1.422062,2.294914 -0.228032,0.89246 -1.024865,1.47842 -1.917331,1.461254 -1.27005,-0.0417 -2.711725,-0.343334 -4.018554,-1.289656 -1.2921156,-0.892459 -2.3341406,-2.598911 -2.3341406,-4.457431 -0.03684,-1.85845 0.948859,-3.564971 2.1625156,-4.626595 1.081257,-0.968493 2.199288,-1.574053 3.317326,-2.10615 4.496656,-1.917318 8.762849,-2.275246 12.840242,-2.826943 8.230796,-1.024858 16.520446,-1.441654 24.788026,-1.498089 4.13624,-0.02085 8.27002,0.07576 12.40381,0.227962 4.11418,0.227963 8.2308,0.436465 12.32782,0.833662 4.07739,0.399629 8.53482,0.627592 13.08542,2.846542 1.10088,0.588671 2.19929,1.289656 3.243785,2.388115 0.51243,0.531681 1.00525,1.196456 1.36567,2.010448 0.38003,0.779729 0.60563,1.973752 0.39719,2.979011"
       style="fill:#ffffff;fill-opacity:1;fill-rule:nonzero;stroke:none;stroke-width:0.245183"
       id="path226"
       inkscape:export-filename="/home/chepecarlos/1.Proyectos/1.Oficiales/1.NocheProgramacion/invitados/008_halloween_2021/p5js/assets/pechos.png"
       inkscape:export-xdpi="125.77238"
       inkscape:export-ydpi="125.77238" />
    <path
       d="m 89.848018,44.398491 -0.32367,0.529596 0.0563,-0.397545 c -0.076,0.168887 -0.1128,-0.0417 -0.60563,-0.399629 -0.45606,-0.340554 -1.13764,-0.681802 -1.89772,-0.926793 -1.47845,-0.551835 -3.24132,-0.816425 -5.11942,-0.948824 -1.85849,-0.115371 -3.83221,-0.152206 -5.8795,-0.171667 l -12.17579,-0.112591 c -4.05779,-0.07576 -8.11802,-0.07576 -12.15619,-0.0556 -8.0984,-0.02085 -16.17719,0.189042 -24.238807,0.510135 -4.057781,0.227963 -8.078788,0.266883 -11.302949,1.233291 -0.777227,0.227962 -1.537294,0.549056 -2.010496,0.87286 -0.380031,0.208502 -0.549195,0.417004 -0.644828,0.605351 -0.0932,0.210588 -0.1128,0.512221 0.208432,0.892459 l 0.456064,0.417005 c -0.701228,-0.168887 -1.348509,-0.796896 -1.480908,-1.554454 -0.169165,-1.157326 0.627661,-2.294915 1.6697,-2.863778 1.024865,-0.588671 2.238522,-0.720862 3.412945,-0.836094 22.569117,-2.255647 45.403027,-3.128507 67.915747,-0.321094 1.04203,0.132052 2.10613,0.284258 2.97653,0.853261 0.87285,0.568516 1.4809,1.689285 1.1401,2.674945"
       style="fill:#e0def2;fill-opacity:1;fill-rule:nonzero;stroke:none;stroke-width:0.245183"
       id="path228"
       inkscape:export-filename="/home/chepecarlos/1.Proyectos/1.Oficiales/1.NocheProgramacion/invitados/008_halloween_2021/p5js/assets/pechos.png"
       inkscape:export-xdpi="125.77238"
       inkscape:export-ydpi="125.77238" />
    <path
       d="m 85.086558,68.142031 c -0.38003,1.802085 -1.5373,2.768076 -2.57932,3.376138 -1.08126,0.588671 -2.1993,0.777227 -3.26094,0.777227 -1.04448,0 -1.89772,-0.853191 -1.87811,-1.895216 0,-0.853261 0.5492,-1.574123 1.30929,-1.802154 l 0.22553,-0.07576 c 0.49526,-0.171667 0.91208,-0.39685 1.13765,-0.701263 l -0.0932,-0.0417 -0.152,-0.07576 c -0.2648,-0.168887 -0.75762,-0.396849 -1.28966,-0.549056 -2.14291,-0.701193 -5.08265,-0.644967 -8.19157,-0.644967 l -18.60696,-0.0417 c -6.18107,-0.0139 -12.34497,0.115371 -18.511326,0.287038 -3.108929,0.132051 -6.161457,0.132051 -8.475985,0.757627 -0.549195,0.132052 -1.098424,0.340554 -1.402448,0.512221 l -0.304066,0.0139 c -0.09563,-0.0556 -0.228032,0.02085 -0.09563,0.247423 0.05629,0.152206 0.247631,0.340553 0.532028,0.49276 l 0.416796,0.171667 0.171597,0.03475 c 1.005252,0.304413 1.574081,1.36569 1.27005,2.370949 -0.247631,0.836094 -1.024865,1.365689 -1.858485,1.365689 -1.024865,-0.02085 -2.238521,-0.247422 -3.356559,-1.022425 -1.100871,-0.76006 -2.010504,-2.240982 -2.030117,-3.851801 -0.0563,-1.630488 0.81646,-3.089308 1.821712,-4.001436 0.909626,-0.833592 1.802099,-1.328854 2.692111,-1.762887 3.604191,-1.574052 6.904358,-1.917317 10.032899,-2.351279 6.335523,-0.87286 12.705383,-1.213622 19.060533,-1.272489 3.18494,-0.02085 6.37232,0.07576 9.54008,0.191127 3.16532,0.208502 6.31347,0.377389 9.46407,0.720792 3.12854,0.340553 6.6175,0.549056 10.27808,2.388115 0.89002,0.49554 1.78249,1.081223 2.63573,1.990849 0.41679,0.475385 0.83362,1.024858 1.15726,1.74572 0.32367,0.664427 0.53203,1.745719 0.34083,2.635746"
       style="fill:#ffffff;fill-opacity:1;fill-rule:nonzero;stroke:none;stroke-width:0.245183"
       id="path230"
       inkscape:export-filename="/home/chepecarlos/1.Proyectos/1.Oficiales/1.NocheProgramacion/invitados/008_halloween_2021/p5js/assets/pechos.png"
       inkscape:export-xdpi="125.77238"
       inkscape:export-ydpi="125.77238" />
    <path
       d="m 79.947528,67.7816 -0.152,-0.07576 c -0.2648,-0.168886 -0.75762,-0.396849 -1.28967,-0.549055 -2.1429,-0.701193 -5.08264,-0.644967 -8.19156,-0.644967 l -18.60696,-0.0417 c -6.18107,-0.0139 -12.34497,0.115371 -18.511327,0.287038 -3.108928,0.132052 -6.161456,0.132052 -8.475984,0.757628 -0.549195,0.132051 -1.098425,0.340554 -1.402449,0.51222 l -0.304066,0.0139 c -0.09563,-0.0556 -0.228032,0.02085 -0.09563,0.247422 0.0563,0.152207 0.247632,0.340554 0.532029,0.492761 -0.456064,-0.03475 -0.929246,-0.39685 -1.024865,-0.890027 -0.151999,-0.683887 0.303996,-1.36569 0.872853,-1.74572 0.588462,-0.360709 1.289662,-0.51222 1.990883,-0.588671 17.486466,-1.726121 35.409356,-1.914885 52.856596,0.189042 0.66443,0.07854 1.4049,0.266883 1.8021,0.816425 0.2452,0.343334 0.22803,0.87286 0,1.213692"
       style="fill:#e0def2;fill-opacity:1;fill-rule:nonzero;stroke:none;stroke-width:0.245183"
       id="path232"
       inkscape:export-filename="/home/chepecarlos/1.Proyectos/1.Oficiales/1.NocheProgramacion/invitados/008_halloween_2021/p5js/assets/pechos.png"
       inkscape:export-xdpi="125.77238"
       inkscape:export-ydpi="125.77238" />
    <path
       d="m 131.37023,48.169767 c -1.04469,-8.110562 -0.50446,-16.421291 1.57949,-24.331708 0.539,-1.953671 1.17914,-3.937806 2.42351,-5.521628 1.27929,-1.583823 3.29824,-2.723831 5.28673,-2.419255 2.72384,0.435144 4.40768,3.163304 5.55203,5.686978 5.14748,11.574099 8.34988,29.044027 2.82831,41.057583 -2.15388,4.71232 -7.13596,6.59638 -11.37837,3.20247 -4.64264,-3.7072 -5.58681,-12.18762 -6.2917,-17.67444 z m 108.43975,2.223451 c 0.77828,-8.14538 3.09793,-16.155875 6.87041,-23.391868 0.93986,-1.818786 1.98418,-3.602765 3.56367,-4.881999 1.58381,-1.279246 3.80726,-1.918863 5.68696,-1.174814 2.59323,1.009415 3.63755,4.037883 4.17704,6.731249 2.48888,12.418226 1.81446,30.153571 -6.19167,40.722541 -3.13284,4.10751 -8.41513,4.84721 -11.81771,0.60918 -3.73338,-4.64703 -2.78909,-13.097 -2.2887,-18.614289 z m 29.453,-15.281295 c -0.50446,-5.116961 -1.51425,-10.299206 -4.24241,-14.676472 -0.37002,-0.569955 -0.74004,-1.14435 -1.17913,-1.679559 -2.78909,-3.502687 -6.89656,-6.061167 -11.33915,-6.061167 -6.901,0 -12.353,5.856669 -15.58587,11.917835 -3.19808,6.091632 -5.14747,12.953424 -9.62484,18.174817 -8.54994,10.064244 -26.18523,9.925005 -38.16834,7.505763 C 175.76514,47.599775 163.54707,38.34484 158.1951,25.656844 155.09717,18.251159 153.04331,8.75692 145.40707,6.268052 140.49024,4.684229 134.90331,7.042628 131.43548,10.9151 c -3.46352,3.86818 -5.21704,8.985153 -6.42664,14.032501 -4.37734,18.209624 -3.23299,37.728956 3.29812,55.298956 0.97932,2.65857 2.1191,5.31713 3.5332,7.77553 1.7143,3.02842 3.87251,5.78706 6.63113,7.91042 5.01686,3.83338 12.55319,5.012543 17.63529,1.24444 6.49632,-4.78194 6.59635,-15.11161 12.92296,-20.12849 3.80726,-2.9936 8.98952,-3.39827 13.80188,-3.56796 9.62484,-0.26974 19.24957,0 28.80904,0.80936 8.28031,0.67442 17.60482,2.4236 22.14744,9.355 2.79353,4.24238 3.66801,10.2644 8.24553,12.48784 2.92834,1.41413 6.56145,0.63964 9.25483,-1.2096 2.69337,-1.88405 4.57752,-4.64704 6.26136,-7.44049 9.32451,-15.61633 13.49735,-34.261077 11.71336,-52.370622"
       style="fill:#ffffff;fill-opacity:1;fill-rule:nonzero;stroke:none;stroke-width:0.435117"
       id="path234"
       inkscape:export-filename="/home/chepecarlos/1.Proyectos/1.Oficiales/1.NocheProgramacion/invitados/008_halloween_2021/p5js/assets/cadera.png"
       inkscape:export-xdpi="86.195816"
       inkscape:export-ydpi="86.195816" />
    <path
       d="m 257.54962,87.482547 c -1.68384,2.79344 -3.56799,5.55644 -6.26136,7.44049 -2.69338,1.84924 -6.32649,2.62375 -9.25483,1.2096 -4.57752,-2.22344 -5.452,-8.24546 -8.24553,-12.48784 -4.54262,-6.93141 -13.86713,-8.68058 -22.14744,-9.355 -9.55947,-0.80936 -19.1842,-1.0791 -28.80904,-0.80936 -4.81236,0.16972 -9.99462,0.5744 -13.80188,3.56796 -6.32661,5.01688 -6.42664,15.34655 -12.92296,20.12849 -5.0821,3.768103 -12.61843,2.58894 -17.63529,-1.24444 -2.75862,-2.12337 -4.91683,-4.882 -6.63113,-7.91042 3.3678,2.9936 7.23599,5.18224 11.50886,4.50781 4.74711,-0.73967 8.24541,-4.81239 10.67336,-8.95035 2.45841,-4.13796 4.3729,-8.71974 7.94088,-11.9483 5.35198,-4.78193 13.12746,-5.42155 20.29376,-5.75659 10.9737,-0.50471 22.01264,-0.80936 32.91664,0.33499 6.63113,0.70921 13.66695,2.18863 18.10953,7.10111 3.63323,4.00742 5.62172,10.19913 10.83876,11.54799 3.06315,0.80492 6.36139,-0.50903 8.71534,-2.62811 2.35838,-2.15382 3.90297,-5.01254 5.31719,-7.8408 5.31707,-10.56898 9.55947,-21.912469 10.0294,-33.756337 0.30465,-7.475298 -1.0743,-15.181205 -4.34244,-21.877659 0.43909,0.535172 0.80911,1.109567 1.17913,1.679559 2.72816,4.377266 3.7377,9.559511 4.24241,14.676472 1.78399,18.109546 -2.38885,36.754285 -11.71336,52.370625"
       style="fill:#e0def2;fill-opacity:1;fill-rule:nonzero;stroke:none;stroke-width:0.435117"
       id="path236" />
    <g
       id="g2028"
       inkscape:export-filename="/home/chepecarlos/1.Proyectos/1.Oficiales/1.NocheProgramacion/invitados/008_halloween_2021/p5js/assets/mano.png"
       inkscape:export-xdpi="86.195816"
       inkscape:export-ydpi="86.195816">
      <path
         d="m 94.209481,185.01345 c 1.31475,-1.74453 2.53854,-3.69302 2.66965,-5.87096 0.12699,-2.17793 -1.20551,-4.58167 -3.35794,-4.93859 -2.0432,-0.34234 -3.88972,1.15817 -5.42303,2.55671 -4.05356,3.70758 -8.10351,7.41153 -12.15708,11.11548 -2.2217,2.02862 -4.81846,4.58168 -3.98439,7.88136 0.6886,2.74974 2.71693,3.52549 5.26631,2.86264 6.51932,-1.69719 13.0822,-8.43131 16.98648,-13.60664"
         style="fill:#ffffff;fill-opacity:1;fill-rule:nonzero;stroke:none;stroke-width:0.364204"
         id="path260" />
      <path
         d="m 74.029001,178.66903 c 3.85328,-8.79551 7.42978,-17.96615 7.72834,-27.5629 0.0826,-2.59313 -0.46973,-5.76534 -2.90999,-6.66129 -1.43491,-0.52806 -3.09933,0 -4.26479,0.98697 -1.17269,0.98334 -1.93386,2.36368 -2.58582,3.74764 -2.92454,6.21331 -4.10456,13.0312 -5.45947,19.71069 -0.68137,3.34339 -1.49314,6.62486 -2.39276,9.91362 -0.69583,2.55306 -1.67536,6.7851 2.10875,7.10924 4.17374,0.3569 6.38078,-4.06086 7.77574,-7.244"
         style="fill:#ffffff;fill-opacity:1;fill-rule:nonzero;stroke:none;stroke-width:0.364204"
         id="path262" />
      <path
         d="m 55.684091,174.22939 c 1.01587,-1.54787 1.42398,-3.4053 1.81732,-5.21539 0.95082,-4.42872 1.90485,-8.85742 2.85899,-13.28613 1.49324,-6.93079 2.99382,-13.98906 2.37831,-21.05096 -0.14247,-1.60978 -0.4078,-3.25233 -1.1983,-4.6618 -0.79803,-1.40946 -2.21436,-2.5567 -3.83139,-2.63684 -1.72636,-0.0908 -3.33244,1.05255 -4.26841,2.50573 -0.93947,1.45317 -1.3294,3.18313 -1.67174,4.87668 -2.1452,10.57282 -3.11027,21.38602 -2.86632,32.17372 0.0516,2.40738 -0.30559,6.82153 1.33302,8.80644 1.6863,2.03953 4.29762,0.24034 5.44852,-1.51145"
         style="fill:#ffffff;fill-opacity:1;fill-rule:nonzero;stroke:none;stroke-width:0.364204"
         id="path264" />
      <path
         d="m 38.173151,168.67894 c 0.81249,-9.7643 1.60619,-19.74347 -0.82281,-29.23461 -0.32004,-1.2565 -0.71751,-2.53485 -1.51874,-3.55462 -0.80527,-1.01979 -2.10866,-1.73725 -3.38706,-1.51508 -2.10142,0.36784 -3.01199,2.83713 -3.4235,4.92766 -1.22369,6.26066 -1.48591,12.70342 -0.80526,19.04055 0.34998,3.25599 0.9467,6.4901 1.79553,9.65139 0.49864,1.86473 1.07801,5.89281 3.1175,6.81788 3.59105,1.63164 4.85118,-3.80591 5.04424,-6.13317"
         style="fill:#ffffff;fill-opacity:1;fill-rule:nonzero;stroke:none;stroke-width:0.364204"
         id="path266" />
      <path
         d="m 27.603991,181.57902 c -0.0826,-1.30385 -0.95083,-2.40739 -1.78098,-3.41259 -3.96251,-4.79656 -7.92501,-9.59312 -11.89124,-14.39331 -0.89921,-1.08898 -1.9667,-2.269 -3.37983,-2.34912 -1.63158,-0.0909 -3.00094,1.44225 -3.26689,3.05203 -0.26635,1.60978 0.30559,3.23777 0.97561,4.72736 2.23987,4.97501 5.73976,9.36366 10.05566,12.69977 1.36213,1.0489 3.48534,2.9901 5.29553,3.1722 1.88648,0.18573 4.10818,-1.52236 3.99162,-3.49634"
         style="fill:#ffffff;fill-opacity:1;fill-rule:nonzero;stroke:none;stroke-width:0.364204"
         id="path268" />
      <path
         d="m 29.658131,195.52436 c -0.0516,6.13319 -0.11253,12.27001 -0.14247,18.41776 -0.0413,3.2924 -0.004,6.76326 1.60247,9.65139 4.14462,7.39333 10.59467,7.72475 16.86993,5.22996 6.02388,-2.38917 11.86936,-7.45524 15.30741,-11.42142 4.53796,-5.28095 7.31323,-12.60872 5.4412,-19.30277 -2.18887,-7.73204 -9.71332,-12.59051 -16.9901,-16.01766 -2.37088,-1.12539 -4.80019,-2.18886 -7.34595,-2.7206 -0.52859,-0.12017 -1.04158,-0.204 -1.56603,-0.26223 -3.12493,-0.37145 -6.50105,0.25128 -8.91208,2.2617 -3.89696,3.29604 -4.23568,9.07595 -4.2648,14.16387"
         style="fill:#ffffff;fill-opacity:1;fill-rule:nonzero;stroke:none;stroke-width:0.364204"
         id="path270" />
      <path
         d="m 29.658131,195.52436 c -0.0516,6.13319 -0.11253,12.27001 -0.14247,18.41776 -0.0413,3.2924 -0.004,6.76326 1.60247,9.65139 4.14462,7.39333 10.59467,7.72475 16.86993,5.22996 -2.86993,0.12378 -5.62331,-0.42979 -7.79401,-2.20707 -3.93339,-3.21227 -4.36318,-8.96669 -4.47602,-14.07646 -0.11975,-6.14775 -0.26945,-12.30643 -0.39024,-18.45054 -0.1053,-4.74557 0.13111,-10.20133 3.91523,-13.06033 1.52235,-1.15089 3.28877,-1.62799 5.15708,-1.66805 -0.52858,-0.12017 -1.04157,-0.204 -1.56603,-0.26223 -3.12493,-0.37145 -6.50104,0.25128 -8.91208,2.2617 -3.89695,3.29604 -4.23568,9.07595 -4.26479,14.16387"
         style="fill:#e0def2;fill-opacity:1;fill-rule:nonzero;stroke:none;stroke-width:0.364204"
         id="path272" />
    </g>
    <g
       id="g993">
      <path
         d="m 256.09294,165.53288 c 0,15.64546 -6.31395,31.27076 -16.67304,43.41877 -3.2085,3.7688 -7.13306,6.74363 -11.50738,8.84159 1.92461,2.89441 3.14818,6.25868 3.47986,9.71838 0.21366,2.40947 -0.0214,5.01246 -1.45725,6.97473 -1.92461,2.66331 -5.6934,3.49994 -8.88175,2.70348 -3.18842,-0.81655 -5.96725,-2.95474 -8.20088,-5.36422 0.69868,2.81651 -1.22358,5.84916 -3.88937,6.97723 -2.68083,1.12814 -5.82901,0.5833 -8.37673,-0.79646 -2.52506,-1.39942 -4.44967,-3.43962 -6.29386,-5.69582 -1.59542,2.2562 -3.53762,4.33407 -5.98733,5.57773 -2.46724,1.26382 -5.4999,1.57534 -7.9697,0.38958 -2.48482,-1.20598 -4.25367,-4.08032 -3.59288,-6.76364 -2.76123,2.95218 -6.82396,4.66319 -10.84652,4.50993 -1.96228,-0.057 -3.96473,-0.58259 -5.42205,-1.88686 -1.78636,-1.61308 -2.38939,-4.13815 -2.09796,-6.56778 0.0954,-0.79646 0.2913,-1.61301 0.58259,-2.35172 0.68087,-1.76877 1.76877,-3.32402 2.99242,-4.78127 -6.06275,-1.86684 -11.56265,-5.32405 -15.89673,-10.14557 -11.03995,-12.34144 -17.84134,-28.52961 -17.84134,-44.75794 0,-33.31096 28.62761,-54.12463 63.94102,-54.12463 20.05489,0 37.95406,6.70338 49.65488,18.61772 8.93951,9.0551 14.28364,21.10518 14.28364,35.50691"
         style="fill:#ffffff;fill-opacity:1;fill-rule:nonzero;stroke:none;stroke-width:0.251252"
         id="path208"
         inkscape:export-filename="/home/chepecarlos/1.Proyectos/1.Oficiales/1.NocheProgramacion/invitados/004_halloween_2021/p5js/assets/exprecion/normal.png"
         inkscape:export-xdpi="99.217148"
         inkscape:export-ydpi="99.217148" />
      <path
         d="m 210.71438,185.76361 c -11.31637,-7.95965 -18.10266,-23.64777 -11.76862,-32.65515 6.33403,-9.00482 23.39401,-7.91941 34.71038,0.0356 11.31387,7.95965 12.59777,19.77606 6.26374,28.78344 -6.3366,9.00731 -17.89163,11.7912 -29.2055,3.83404"
         style="fill:#21224c;fill-opacity:1;fill-rule:nonzero;stroke:none;stroke-width:0.251252"
         id="path210" />
      <path
         d="m 152.04207,157.82193 c 9.77621,-9.78625 26.39655,-13.78866 34.18534,-6.00492 7.78879,7.78381 3.79892,24.40407 -5.97978,34.19032 -9.77622,9.78376 -21.64034,9.02747 -29.42914,1.24373 -7.78879,-7.78124 -8.55513,-19.64537 1.22358,-29.42913"
         style="fill:#21224c;fill-opacity:1;fill-rule:nonzero;stroke:none;stroke-width:0.251252"
         id="path212" />
      <path
         d="m 198.80503,184.96216 c -1.98486,-1.71856 -5.00242,-1.61051 -7.47721,-0.72866 -1.24622,0.44727 -2.45726,1.07786 -3.36426,2.04269 -0.90707,0.96483 -1.48239,2.3015 -1.31908,3.61304 0.16309,1.31402 1.16831,2.54515 2.47478,2.76123 0.98242,0.16096 1.98992,-0.24357 2.7663,-0.86433 0.77637,-0.62319 1.36181,-1.44721 1.93713,-2.2587 0.21367,1.42456 2.2889,2.39437 3.71859,2.19588 1.42706,-0.20369 2.58283,-1.48239 2.79386,-2.90945 0.21366,-1.42463 -0.43944,-2.90951 -1.53011,-3.8517"
         style="fill:#21224c;fill-opacity:1;fill-rule:nonzero;stroke:none;stroke-width:0.251252"
         id="path214" />
      <path
         d="m 256.09294,165.53288 c 0,15.64546 -6.31395,31.27076 -16.67304,43.41877 -3.2085,3.7688 -7.13306,6.74363 -11.50738,8.84159 1.92461,2.89441 3.14818,6.25868 3.47986,9.71838 0.21366,2.40947 -0.0214,5.01246 -1.45725,6.97473 -1.92461,2.66331 -5.6934,3.49994 -8.88175,2.70348 -3.18842,-0.81655 -5.96725,-2.95474 -8.20088,-5.36422 0.69868,2.81651 -1.22358,5.84916 -3.88937,6.97723 -2.68083,1.12814 -5.82901,0.5833 -8.37673,-0.79646 -2.52506,-1.39942 -4.44967,-3.43962 -6.29386,-5.69582 -1.59542,2.2562 -3.53762,4.33407 -5.98733,5.57773 -2.46724,1.26382 -5.4999,1.57534 -7.9697,0.38958 -2.48482,-1.20598 -4.25367,-4.08032 -3.59288,-6.76364 -2.76123,2.95218 -6.82396,4.66319 -10.84652,4.50993 -1.96228,-0.057 -3.96473,-0.58259 -5.42205,-1.88686 -1.78636,-1.61308 -2.38939,-4.13815 -2.09796,-6.56778 0.23147,0.69868 0.6004,1.34173 1.08798,1.88443 1.2839,1.43717 3.22602,2.1758 5.15062,2.23613 1.92461,0.057 3.82912,-0.48715 5.57781,-1.2839 3.73105,-1.69093 6.91947,-4.52759 9.03751,-8.00737 -0.60324,2.44971 -0.48715,5.03503 -0.17591,7.54002 0.17591,1.2839 0.48715,2.62563 1.39942,3.55777 1.26381,1.32157 3.42209,1.45725 5.15069,0.85422 2.0778,-0.7387 3.7713,-2.35171 4.99487,-4.17832 1.22358,-1.84668 2.02004,-3.92456 2.8165,-5.98476 1.07038,4.46975 4.33415,8.35656 8.53256,10.24349 1.16581,0.52276 2.42956,0.89197 3.71346,0.83414 1.26132,-0.0776 2.5653,-0.62318 3.30144,-1.67334 0.73871,-1.02757 0.85679,-2.3693 0.83671,-3.63305 -0.0356,-1.8266 -0.27135,-3.6532 -0.73871,-5.42205 2.89692,3.45977 6.93956,5.90942 11.33147,6.9773 1.01005,0.23361 2.11804,0.38958 3.09042,-0.0142 1.10798,-0.46721 1.78636,-1.63317 1.98236,-2.82156 0.17307,-1.18341 -0.0776,-2.38946 -0.44727,-3.53512 -1.30149,-4.19841 -3.98481,-7.92953 -7.54001,-10.51492 17.31623,-7.26867 30.60748,-24.01962 33.8335,-42.52182 2.54772,-14.5374 -1.0879,-29.96927 -9.5023,-42.07711 8.93951,9.0551 14.28365,21.10518 14.28365,35.50691"
         style="fill:#e0def2;fill-opacity:1;fill-rule:nonzero;stroke:none;stroke-width:0.251252"
         id="path216" />
    </g>
    <circle
       style="fill:#a256ff;stroke-width:1.32292;stroke-linecap:square;stroke-linejoin:bevel"
       id="path890"
       cx="52.05286"
       cy="178.79799"
       r="7.5744967" />
    <g
       id="g1005"
       transform="translate(156.73283,-0.56378714)"
       inkscape:export-filename="/home/chepecarlos/1.Proyectos/1.Oficiales/1.NocheProgramacion/invitados/004_halloween_2021/p5js/assets/enojado.png"
       inkscape:export-xdpi="99.217148"
       inkscape:export-ydpi="99.217148">
      <path
         d="m 256.09294,165.53288 c 0,15.64546 -6.31395,31.27076 -16.67304,43.41877 -3.2085,3.7688 -7.13306,6.74363 -11.50738,8.84159 1.92461,2.89441 3.14818,6.25868 3.47986,9.71838 0.21366,2.40947 -0.0214,5.01246 -1.45725,6.97473 -1.92461,2.66331 -5.6934,3.49994 -8.88175,2.70348 -3.18842,-0.81655 -5.96725,-2.95474 -8.20088,-5.36422 0.69868,2.81651 -1.22358,5.84916 -3.88937,6.97723 -2.68083,1.12814 -5.82901,0.5833 -8.37673,-0.79646 -2.52506,-1.39942 -4.44967,-3.43962 -6.29386,-5.69582 -1.59542,2.2562 -3.53762,4.33407 -5.98733,5.57773 -2.46724,1.26382 -5.4999,1.57534 -7.9697,0.38958 -2.48482,-1.20598 -4.25367,-4.08032 -3.59288,-6.76364 -2.76123,2.95218 -6.82396,4.66319 -10.84652,4.50993 -1.96228,-0.057 -3.96473,-0.58259 -5.42205,-1.88686 -1.78636,-1.61308 -2.38939,-4.13815 -2.09796,-6.56778 0.0954,-0.79646 0.2913,-1.61301 0.58259,-2.35172 0.68087,-1.76877 1.76877,-3.32402 2.99242,-4.78127 -6.06275,-1.86684 -11.56265,-5.32405 -15.89673,-10.14557 -11.03995,-12.34144 -17.84134,-28.52961 -17.84134,-44.75794 0,-33.31096 28.62761,-54.12463 63.94102,-54.12463 20.05489,0 37.95406,6.70338 49.65488,18.61772 8.93951,9.0551 14.28364,21.10518 14.28364,35.50691"
         style="fill:#ffffff;fill-opacity:1;fill-rule:nonzero;stroke:none;stroke-width:0.251252"
         id="path995"
         inkscape:export-filename="/home/chepecarlos/1.Proyectos/1.Oficiales/1.NocheProgramacion/invitados/004_halloween_2021/p5js/assets/exprecion/normal.png"
         inkscape:export-xdpi="99.217148"
         inkscape:export-ydpi="99.217148" />
      <path
         d="m 210.71438,185.76361 c -11.31637,-7.95965 -18.10266,-23.64777 -11.76862,-32.65515 6.33403,-9.00482 23.39401,-7.91941 34.71038,0.0356 11.31387,7.95965 12.59777,19.77606 6.26374,28.78344 -6.3366,9.00731 -17.89163,11.7912 -29.2055,3.83404"
         style="fill:#21224c;fill-opacity:1;fill-rule:nonzero;stroke:none;stroke-width:0.251252"
         id="path997" />
      <path
         d="m 152.04207,157.82193 c 9.77621,-9.78625 26.39655,-13.78866 34.18534,-6.00492 7.78879,7.78381 3.79892,24.40407 -5.97978,34.19032 -9.77622,9.78376 -21.64034,9.02747 -29.42914,1.24373 -7.78879,-7.78124 -8.55513,-19.64537 1.22358,-29.42913"
         style="fill:#21224c;fill-opacity:1;fill-rule:nonzero;stroke:none;stroke-width:0.251252"
         id="path999" />
      <path
         d="m 198.80503,184.96216 c -1.98486,-1.71856 -5.00242,-1.61051 -7.47721,-0.72866 -1.24622,0.44727 -2.45726,1.07786 -3.36426,2.04269 -0.90707,0.96483 -1.48239,2.3015 -1.31908,3.61304 0.16309,1.31402 1.16831,2.54515 2.47478,2.76123 0.98242,0.16096 1.98992,-0.24357 2.7663,-0.86433 0.77637,-0.62319 1.36181,-1.44721 1.93713,-2.2587 0.21367,1.42456 2.2889,2.39437 3.71859,2.19588 1.42706,-0.20369 2.58283,-1.48239 2.79386,-2.90945 0.21366,-1.42463 -0.43944,-2.90951 -1.53011,-3.8517"
         style="fill:#21224c;fill-opacity:1;fill-rule:nonzero;stroke:none;stroke-width:0.251252"
         id="path1001" />
      <path
         d="m 256.09294,165.53288 c 0,15.64546 -6.31395,31.27076 -16.67304,43.41877 -3.2085,3.7688 -7.13306,6.74363 -11.50738,8.84159 1.92461,2.89441 3.14818,6.25868 3.47986,9.71838 0.21366,2.40947 -0.0214,5.01246 -1.45725,6.97473 -1.92461,2.66331 -5.6934,3.49994 -8.88175,2.70348 -3.18842,-0.81655 -5.96725,-2.95474 -8.20088,-5.36422 0.69868,2.81651 -1.22358,5.84916 -3.88937,6.97723 -2.68083,1.12814 -5.82901,0.5833 -8.37673,-0.79646 -2.52506,-1.39942 -4.44967,-3.43962 -6.29386,-5.69582 -1.59542,2.2562 -3.53762,4.33407 -5.98733,5.57773 -2.46724,1.26382 -5.4999,1.57534 -7.9697,0.38958 -2.48482,-1.20598 -4.25367,-4.08032 -3.59288,-6.76364 -2.76123,2.95218 -6.82396,4.66319 -10.84652,4.50993 -1.96228,-0.057 -3.96473,-0.58259 -5.42205,-1.88686 -1.78636,-1.61308 -2.38939,-4.13815 -2.09796,-6.56778 0.23147,0.69868 0.6004,1.34173 1.08798,1.88443 1.2839,1.43717 3.22602,2.1758 5.15062,2.23613 1.92461,0.057 3.82912,-0.48715 5.57781,-1.2839 3.73105,-1.69093 6.91947,-4.52759 9.03751,-8.00737 -0.60324,2.44971 -0.48715,5.03503 -0.17591,7.54002 0.17591,1.2839 0.48715,2.62563 1.39942,3.55777 1.26381,1.32157 3.42209,1.45725 5.15069,0.85422 2.0778,-0.7387 3.7713,-2.35171 4.99487,-4.17832 1.22358,-1.84668 2.02004,-3.92456 2.8165,-5.98476 1.07038,4.46975 4.33415,8.35656 8.53256,10.24349 1.16581,0.52276 2.42956,0.89197 3.71346,0.83414 1.26132,-0.0776 2.5653,-0.62318 3.30144,-1.67334 0.73871,-1.02757 0.85679,-2.3693 0.83671,-3.63305 -0.0356,-1.8266 -0.27135,-3.6532 -0.73871,-5.42205 2.89692,3.45977 6.93956,5.90942 11.33147,6.9773 1.01005,0.23361 2.11804,0.38958 3.09042,-0.0142 1.10798,-0.46721 1.78636,-1.63317 1.98236,-2.82156 0.17307,-1.18341 -0.0776,-2.38946 -0.44727,-3.53512 -1.30149,-4.19841 -3.98481,-7.92953 -7.54001,-10.51492 17.31623,-7.26867 30.60748,-24.01962 33.8335,-42.52182 2.54772,-14.5374 -1.0879,-29.96927 -9.5023,-42.07711 8.93951,9.0551 14.28365,21.10518 14.28365,35.50691"
         style="fill:#e0def2;fill-opacity:1;fill-rule:nonzero;stroke:none;stroke-width:0.251252"
         id="path1003" />
    </g>
    <g
       id="g1017"
       transform="translate(317.97595,2.2551486)"
       inkscape:export-filename="/home/chepecarlos/1.Proyectos/1.Oficiales/1.NocheProgramacion/invitados/004_halloween_2021/p5js/assets/feliz.png"
       inkscape:export-xdpi="99.217148"
       inkscape:export-ydpi="99.217148">
      <path
         d="m 256.09294,165.53288 c 0,15.64546 -6.31395,31.27076 -16.67304,43.41877 -3.2085,3.7688 -7.13306,6.74363 -11.50738,8.84159 1.92461,2.89441 3.14818,6.25868 3.47986,9.71838 0.21366,2.40947 -0.0214,5.01246 -1.45725,6.97473 -1.92461,2.66331 -5.6934,3.49994 -8.88175,2.70348 -3.18842,-0.81655 -5.96725,-2.95474 -8.20088,-5.36422 0.69868,2.81651 -1.22358,5.84916 -3.88937,6.97723 -2.68083,1.12814 -5.82901,0.5833 -8.37673,-0.79646 -2.52506,-1.39942 -4.44967,-3.43962 -6.29386,-5.69582 -1.59542,2.2562 -3.53762,4.33407 -5.98733,5.57773 -2.46724,1.26382 -5.4999,1.57534 -7.9697,0.38958 -2.48482,-1.20598 -4.25367,-4.08032 -3.59288,-6.76364 -2.76123,2.95218 -6.82396,4.66319 -10.84652,4.50993 -1.96228,-0.057 -3.96473,-0.58259 -5.42205,-1.88686 -1.78636,-1.61308 -2.38939,-4.13815 -2.09796,-6.56778 0.0954,-0.79646 0.2913,-1.61301 0.58259,-2.35172 0.68087,-1.76877 1.76877,-3.32402 2.99242,-4.78127 -6.06275,-1.86684 -11.56265,-5.32405 -15.89673,-10.14557 -11.03995,-12.34144 -17.84134,-28.52961 -17.84134,-44.75794 0,-33.31096 28.62761,-54.12463 63.94102,-54.12463 20.05489,0 37.95406,6.70338 49.65488,18.61772 8.93951,9.0551 14.28364,21.10518 14.28364,35.50691"
         style="fill:#ffffff;fill-opacity:1;fill-rule:nonzero;stroke:none;stroke-width:0.251252"
         id="path1007"
         inkscape:export-filename="/home/chepecarlos/1.Proyectos/1.Oficiales/1.NocheProgramacion/invitados/004_halloween_2021/p5js/assets/exprecion/normal.png"
         inkscape:export-xdpi="99.217148"
         inkscape:export-ydpi="99.217148" />
      <path
         d="m 210.71438,185.76361 c -11.31637,-7.95965 -18.10266,-23.64777 -11.76862,-32.65515 6.33403,-9.00482 23.39401,-7.91941 34.71038,0.0356 11.31387,7.95965 12.59777,19.77606 6.26374,28.78344 -6.3366,9.00731 -17.89163,11.7912 -29.2055,3.83404"
         style="fill:#21224c;fill-opacity:1;fill-rule:nonzero;stroke:none;stroke-width:0.251252"
         id="path1009" />
      <path
         d="m 152.04207,157.82193 c 9.77621,-9.78625 26.39655,-13.78866 34.18534,-6.00492 7.78879,7.78381 3.79892,24.40407 -5.97978,34.19032 -9.77622,9.78376 -21.64034,9.02747 -29.42914,1.24373 -7.78879,-7.78124 -8.55513,-19.64537 1.22358,-29.42913"
         style="fill:#21224c;fill-opacity:1;fill-rule:nonzero;stroke:none;stroke-width:0.251252"
         id="path1011" />
      <path
         d="m 198.80503,184.96216 c -1.98486,-1.71856 -5.00242,-1.61051 -7.47721,-0.72866 -1.24622,0.44727 -2.45726,1.07786 -3.36426,2.04269 -0.90707,0.96483 -1.48239,2.3015 -1.31908,3.61304 0.16309,1.31402 1.16831,2.54515 2.47478,2.76123 0.98242,0.16096 1.98992,-0.24357 2.7663,-0.86433 0.77637,-0.62319 1.36181,-1.44721 1.93713,-2.2587 0.21367,1.42456 2.2889,2.39437 3.71859,2.19588 1.42706,-0.20369 2.58283,-1.48239 2.79386,-2.90945 0.21366,-1.42463 -0.43944,-2.90951 -1.53011,-3.8517"
         style="fill:#21224c;fill-opacity:1;fill-rule:nonzero;stroke:none;stroke-width:0.251252"
         id="path1013" />
      <path
         d="m 256.09294,165.53288 c 0,15.64546 -6.31395,31.27076 -16.67304,43.41877 -3.2085,3.7688 -7.13306,6.74363 -11.50738,8.84159 1.92461,2.89441 3.14818,6.25868 3.47986,9.71838 0.21366,2.40947 -0.0214,5.01246 -1.45725,6.97473 -1.92461,2.66331 -5.6934,3.49994 -8.88175,2.70348 -3.18842,-0.81655 -5.96725,-2.95474 -8.20088,-5.36422 0.69868,2.81651 -1.22358,5.84916 -3.88937,6.97723 -2.68083,1.12814 -5.82901,0.5833 -8.37673,-0.79646 -2.52506,-1.39942 -4.44967,-3.43962 -6.29386,-5.69582 -1.59542,2.2562 -3.53762,4.33407 -5.98733,5.57773 -2.46724,1.26382 -5.4999,1.57534 -7.9697,0.38958 -2.48482,-1.20598 -4.25367,-4.08032 -3.59288,-6.76364 -2.76123,2.95218 -6.82396,4.66319 -10.84652,4.50993 -1.96228,-0.057 -3.96473,-0.58259 -5.42205,-1.88686 -1.78636,-1.61308 -2.38939,-4.13815 -2.09796,-6.56778 0.23147,0.69868 0.6004,1.34173 1.08798,1.88443 1.2839,1.43717 3.22602,2.1758 5.15062,2.23613 1.92461,0.057 3.82912,-0.48715 5.57781,-1.2839 3.73105,-1.69093 6.91947,-4.52759 9.03751,-8.00737 -0.60324,2.44971 -0.48715,5.03503 -0.17591,7.54002 0.17591,1.2839 0.48715,2.62563 1.39942,3.55777 1.26381,1.32157 3.42209,1.45725 5.15069,0.85422 2.0778,-0.7387 3.7713,-2.35171 4.99487,-4.17832 1.22358,-1.84668 2.02004,-3.92456 2.8165,-5.98476 1.07038,4.46975 4.33415,8.35656 8.53256,10.24349 1.16581,0.52276 2.42956,0.89197 3.71346,0.83414 1.26132,-0.0776 2.5653,-0.62318 3.30144,-1.67334 0.73871,-1.02757 0.85679,-2.3693 0.83671,-3.63305 -0.0356,-1.8266 -0.27135,-3.6532 -0.73871,-5.42205 2.89692,3.45977 6.93956,5.90942 11.33147,6.9773 1.01005,0.23361 2.11804,0.38958 3.09042,-0.0142 1.10798,-0.46721 1.78636,-1.63317 1.98236,-2.82156 0.17307,-1.18341 -0.0776,-2.38946 -0.44727,-3.53512 -1.30149,-4.19841 -3.98481,-7.92953 -7.54001,-10.51492 17.31623,-7.26867 30.60748,-24.01962 33.8335,-42.52182 2.54772,-14.5374 -1.0879,-29.96927 -9.5023,-42.07711 8.93951,9.0551 14.28365,21.10518 14.28365,35.50691"
         style="fill:#e0def2;fill-opacity:1;fill-rule:nonzero;stroke:none;stroke-width:0.251252"
         id="path1015" />
    </g>
    <path
       style="fill:#ff0000;stroke:#000000;stroke-width:0.264583px;stroke-linecap:butt;stroke-linejoin:miter;stroke-opacity:1"
       d="m 351.61611,151.68926 36.27784,-21.52752 2.39194,20.53088 z"
       id="path1214" />
    <path
       style="fill:#ff0000;stroke:#000000;stroke-width:0.264583px;stroke-linecap:butt;stroke-linejoin:miter;stroke-opacity:1"
       d="m 345.67891,153.68255 -36.27784,-21.52752 -2.39194,20.53088 z"
       id="path1329" />
    <path
       style="fill:#ffff00;stroke:#000000;stroke-width:0.264583px;stroke-linecap:butt;stroke-linejoin:miter;stroke-opacity:1"
       d="m 485.13883,194.22467 c 0,0 12.99249,10.14055 20.71918,10.43006 11.93603,0.44723 33.1225,-13.67184 33.1225,-13.67184 0,0 -17.40375,22.74992 -29.88072,22.55149 -10.25645,-0.16311 -23.96096,-19.30971 -23.96096,-19.30971 z"
       id="path1364"
       sodipodi:nodetypes="cscsc" />
  </g>
</svg>
