<?xml version="1.0" encoding="UTF-8" standalone="no"?>
<!-- Created with Inkscape (http://www.inkscape.org/) -->

<svg
   width="500"
   height="500"
   viewBox="0 0 132.29167 132.29167"
   version="1.1"
   id="svg871"
   inkscape:version="1.1.1 (1:1.1+202109281949+c3084ef5ed)"
   sodipodi:docname="Mano.svg"
   inkscape:export-filename="/home/chepecarlos/1.Proyectos/1.Oficiales/1.NocheProgramacion/invitados/004_halloween_2021/p5js/assets/mano.png"
   inkscape:export-xdpi="185.56505"
   inkscape:export-ydpi="185.56505"
   xmlns:inkscape="http://www.inkscape.org/namespaces/inkscape"
   xmlns:sodipodi="http://sodipodi.sourceforge.net/DTD/sodipodi-0.dtd"
   xmlns="http://www.w3.org/2000/svg"
   xmlns:svg="http://www.w3.org/2000/svg">
  <sodipodi:namedview
     id="namedview873"
     pagecolor="#161616"
     bordercolor="#666666"
     borderopacity="1.0"
     inkscape:pageshadow="2"
     inkscape:pageopacity="0"
     inkscape:pagecheckerboard="0"
     inkscape:document-units="px"
     showgrid="false"
     units="px"
     inkscape:zoom="1.3273709"
     inkscape:cx="311.51805"
     inkscape:cy="239.19463"
     inkscape:window-width="1920"
     inkscape:window-height="1003"
     inkscape:window-x="0"
     inkscape:window-y="0"
     inkscape:window-maximized="1"
     inkscape:current-layer="layer1" />
  <defs
     id="defs868" />
  <g
     inkscape:label="Capa 1"
     inkscape:groupmode="layer"
     id="layer1">
    <g
       id="g2028"
       inkscape:export-filename="/home/chepecarlos/1.Proyectos/1.Oficiales/1.NocheProgramacion/invitados/008_halloween_2021/p5js/assets/mano.png"
       inkscape:export-xdpi="86.195816"
       inkscape:export-ydpi="86.195816"
       transform="matrix(0.64589133,-0.11500068,0.11500068,0.64589133,14.353627,-71.987121)">
      <path
         d="m 94.209481,185.01345 c 1.31475,-1.74453 2.53854,-3.69302 2.66965,-5.87096 0.12699,-2.17793 -1.20551,-4.58167 -3.35794,-4.93859 -2.0432,-0.34234 -3.88972,1.15817 -5.42303,2.55671 -4.05356,3.70758 -8.10351,7.41153 -12.15708,11.11548 -2.2217,2.02862 -4.81846,4.58168 -3.98439,7.88136 0.6886,2.74974 2.71693,3.52549 5.26631,2.86264 6.51932,-1.69719 13.0822,-8.43131 16.98648,-13.60664"
         style="fill:#ffffff;fill-opacity:1;fill-rule:nonzero;stroke:none;stroke-width:0.364204"
         id="path260" />
      <path
         d="m 74.029001,178.66903 c 3.85328,-8.79551 7.42978,-17.96615 7.72834,-27.5629 0.0826,-2.59313 -0.46973,-5.76534 -2.90999,-6.66129 -1.43491,-0.52806 -3.09933,0 -4.26479,0.98697 -1.17269,0.98334 -1.93386,2.36368 -2.58582,3.74764 -2.92454,6.21331 -4.10456,13.0312 -5.45947,19.71069 -0.68137,3.34339 -1.49314,6.62486 -2.39276,9.91362 -0.69583,2.55306 -1.67536,6.7851 2.10875,7.10924 4.17374,0.3569 6.38078,-4.06086 7.77574,-7.244"
         style="fill:#ffffff;fill-opacity:1;fill-rule:nonzero;stroke:none;stroke-width:0.364204"
         id="path262" />
      <path
         d="m 55.684091,174.22939 c 1.01587,-1.54787 1.42398,-3.4053 1.81732,-5.21539 0.95082,-4.42872 1.90485,-8.85742 2.85899,-13.28613 1.49324,-6.93079 2.99382,-13.98906 2.37831,-21.05096 -0.14247,-1.60978 -0.4078,-3.25233 -1.1983,-4.6618 -0.79803,-1.40946 -2.21436,-2.5567 -3.83139,-2.63684 -1.72636,-0.0908 -3.33244,1.05255 -4.26841,2.50573 -0.93947,1.45317 -1.3294,3.18313 -1.67174,4.87668 -2.1452,10.57282 -3.11027,21.38602 -2.86632,32.17372 0.0516,2.40738 -0.30559,6.82153 1.33302,8.80644 1.6863,2.03953 4.29762,0.24034 5.44852,-1.51145"
         style="fill:#ffffff;fill-opacity:1;fill-rule:nonzero;stroke:none;stroke-width:0.364204"
         id="path264" />
      <path
         d="m 38.173151,168.67894 c 0.81249,-9.7643 1.60619,-19.74347 -0.82281,-29.23461 -0.32004,-1.2565 -0.71751,-2.53485 -1.51874,-3.55462 -0.80527,-1.01979 -2.10866,-1.73725 -3.38706,-1.51508 -2.10142,0.36784 -3.01199,2.83713 -3.4235,4.92766 -1.22369,6.26066 -1.48591,12.70342 -0.80526,19.04055 0.34998,3.25599 0.9467,6.4901 1.79553,9.65139 0.49864,1.86473 1.07801,5.89281 3.1175,6.81788 3.59105,1.63164 4.85118,-3.80591 5.04424,-6.13317"
         style="fill:#ffffff;fill-opacity:1;fill-rule:nonzero;stroke:none;stroke-width:0.364204"
         id="path266" />
      <path
         d="m 27.603991,181.57902 c -0.0826,-1.30385 -0.95083,-2.40739 -1.78098,-3.41259 -3.96251,-4.79656 -7.92501,-9.59312 -11.89124,-14.39331 -0.89921,-1.08898 -1.9667,-2.269 -3.37983,-2.34912 -1.63158,-0.0909 -3.00094,1.44225 -3.26689,3.05203 -0.26635,1.60978 0.30559,3.23777 0.97561,4.72736 2.23987,4.97501 5.73976,9.36366 10.05566,12.69977 1.36213,1.0489 3.48534,2.9901 5.29553,3.1722 1.88648,0.18573 4.10818,-1.52236 3.99162,-3.49634"
         style="fill:#ffffff;fill-opacity:1;fill-rule:nonzero;stroke:none;stroke-width:0.364204"
         id="path268" />
      <path
         d="m 29.658131,195.52436 c -0.0516,6.13319 -0.11253,12.27001 -0.14247,18.41776 -0.0413,3.2924 -0.004,6.76326 1.60247,9.65139 4.14462,7.39333 10.59467,7.72475 16.86993,5.22996 6.02388,-2.38917 11.86936,-7.45524 15.30741,-11.42142 4.53796,-5.28095 7.31323,-12.60872 5.4412,-19.30277 -2.18887,-7.73204 -9.71332,-12.59051 -16.9901,-16.01766 -2.37088,-1.12539 -4.80019,-2.18886 -7.34595,-2.7206 -0.52859,-0.12017 -1.04158,-0.204 -1.56603,-0.26223 -3.12493,-0.37145 -6.50105,0.25128 -8.91208,2.2617 -3.89696,3.29604 -4.23568,9.07595 -4.2648,14.16387"
         style="fill:#ffffff;fill-opacity:1;fill-rule:nonzero;stroke:none;stroke-width:0.364204"
         id="path270" />
      <path
         d="m 29.658131,195.52436 c -0.0516,6.13319 -0.11253,12.27001 -0.14247,18.41776 -0.0413,3.2924 -0.004,6.76326 1.60247,9.65139 4.14462,7.39333 10.59467,7.72475 16.86993,5.22996 -2.86993,0.12378 -5.62331,-0.42979 -7.79401,-2.20707 -3.93339,-3.21227 -4.36318,-8.96669 -4.47602,-14.07646 -0.11975,-6.14775 -0.26945,-12.30643 -0.39024,-18.45054 -0.1053,-4.74557 0.13111,-10.20133 3.91523,-13.06033 1.52235,-1.15089 3.28877,-1.62799 5.15708,-1.66805 -0.52858,-0.12017 -1.04157,-0.204 -1.56603,-0.26223 -3.12493,-0.37145 -6.50104,0.25128 -8.91208,2.2617 -3.89695,3.29604 -4.23568,9.07595 -4.26479,14.16387"
         style="fill:#e0def2;fill-opacity:1;fill-rule:nonzero;stroke:none;stroke-width:0.364204"
         id="path272" />
    </g>
    <circle
       style="fill:#ff0000;stroke-width:0.387474;stroke-linecap:square;stroke-linejoin:bevel"
       id="path1032"
       cx="168.00288"
       cy="52.790802"
       r="3.7364531" />
  </g>
</svg>
